<svg width="512" height="512" viewBox="0 0 512 512" style="color:#d6d6d6" xmlns="http://www.w3.org/2000/svg" class="h-full w-full"><rect width="512" height="512" x="0" y="0" rx="30" fill="transparent" stroke="transparent" stroke-width="0" stroke-opacity="100%" paint-order="stroke"></rect><svg width="256px" height="256px" viewBox="0 0 16 16" fill="#d6d6d6" x="128" y="128" role="img" style="display:inline-block;vertical-align:middle" xmlns="http://www.w3.org/2000/svg"><g fill="#d6d6d6"><g fill="currentColor"><path d="M12.5 16a3.5 3.5 0 1 0 0-7a3.5 3.5 0 0 0 0 7Zm1.679-4.493l-1.335 2.226a.75.75 0 0 1-1.174.144l-.774-.773a.5.5 0 0 1 .708-.708l.547.548l1.17-1.951a.5.5 0 1 1 .858.514ZM11 5a3 3 0 1 1-6 0a3 3 0 0 1 6 0Z"/><path d="M2 13c0 1 1 1 1 1h5.256A4.493 4.493 0 0 1 8 12.5a4.49 4.49 0 0 1 1.544-3.393C9.077 9.038 8.564 9 8 9c-5 0-6 3-6 4Z"/></g></g></svg></svg>